<svg preserveAspectRatio="none" width="100%" height="100%" overflow="visible" style="display: block;" viewBox="0 0 40 40" fill="none" xmlns="http://www.w3.org/2000/svg">
<g id="MicrophoneStage">
<path id="Vector" d="M26.25 2.5C23.2672 2.5029 20.4074 3.68909 18.2982 5.79825C16.1891 7.9074 15.0029 10.7672 15 13.75C15.0011 14.2422 15.034 14.7339 15.0984 15.2219L4.2375 30.0344C3.88201 30.5152 3.71148 31.1079 3.7571 31.7041C3.80271 32.3003 4.06143 32.8601 4.48594 33.2813L6.71875 35.5141C7.13986 35.9386 7.69972 36.1973 8.29592 36.2429C8.89213 36.2885 9.48483 36.118 9.96562 35.7625L24.7797 24.8984C25.2671 24.9638 25.7582 24.9978 26.25 25C29.2337 25 32.0952 23.8147 34.2049 21.705C36.3147 19.5952 37.5 16.7337 37.5 13.75C37.5 10.7663 36.3147 7.90483 34.2049 5.79505C32.0952 3.68526 29.2337 2.5 26.25 2.5ZM35 13.75C35.0023 15.6388 34.3902 17.477 33.2562 18.9875L21.0141 6.74375C22.3145 5.77248 23.8595 5.18208 25.4763 5.03855C27.093 4.89502 28.7178 5.20402 30.1691 5.93101C31.6203 6.658 32.8407 7.77431 33.6938 9.15514C34.547 10.536 34.9992 12.1269 35 13.75ZM8.4875 33.75L6.25 31.5125L15.9594 18.2813C17.0971 20.8498 19.1502 22.9029 21.7187 24.0406L8.4875 33.75ZM17.5 13.75C17.4975 11.8617 18.1096 10.0238 19.2437 8.51406L31.4844 20.7547C30.184 21.7254 28.6393 22.3154 27.023 22.4588C25.4066 22.6021 23.7822 22.2932 22.3313 21.5664C20.8804 20.8397 19.6602 19.7238 18.807 18.3435C17.9538 16.9631 17.5013 15.3727 17.5 13.75ZM17.1328 22.8656C17.3671 23.1 17.4986 23.4178 17.4986 23.7492C17.4986 24.0806 17.3671 24.3984 17.1328 24.6328L15.8828 25.8828C15.7679 26.0038 15.6299 26.1005 15.477 26.1673C15.3241 26.2341 15.1594 26.2696 14.9926 26.2717C14.8258 26.2739 14.6602 26.2426 14.5056 26.1797C14.3511 26.1169 14.2107 26.0237 14.0927 25.9057C13.9747 25.7878 13.8816 25.6474 13.8187 25.4928C13.7558 25.3383 13.7246 25.1727 13.7267 25.0058C13.7288 24.839 13.7643 24.6743 13.8311 24.5214C13.8979 24.3685 13.9947 24.2305 14.1156 24.1156L15.3656 22.8656C15.4816 22.7491 15.6195 22.6566 15.7714 22.5934C15.9232 22.5302 16.086 22.4976 16.2505 22.4975C16.4149 22.4973 16.5778 22.5296 16.7297 22.5925C16.8817 22.6554 17.0197 22.7477 17.1359 22.8641L17.1328 22.8656Z" fill="black"/>
</g>
</svg>
